<?xml version="1.0" encoding="utf-8"?>
<!-- Generator: Adobe Illustrator 17.0.0, SVG Export Plug-In . SVG Version: 6.00 Build 0)  -->
<!DOCTYPE svg PUBLIC "-//W3C//DTD SVG 1.1//EN" "http://www.w3.org/Graphics/SVG/1.1/DTD/svg11.dtd">
<svg version="1.1" id="Layer_1" xmlns="http://www.w3.org/2000/svg" xmlns:xlink="http://www.w3.org/1999/xlink" x="0px" y="0px"
	 width="45px" height="45px" viewBox="0 0 45 45" enable-background="new 0 0 45 45" xml:space="preserve">
<path fill="#4D4D4D" d="M45,8.538c-1.657,0.735-3.437,1.231-5.305,1.455c1.908-1.143,3.372-2.953,4.062-5.11
	c-1.785,1.058-3.762,1.827-5.865,2.241c-1.685-1.795-4.086-2.916-6.741-2.916c-5.101,0-9.236,4.135-9.236,9.236
	c0,0.724,0.081,1.429,0.239,2.104c-7.675-0.385-14.483-4.062-19.037-9.65c-0.795,1.364-1.251,2.951-1.251,4.643
	c0,3.204,2.235,6.031,4.713,7.687C5.065,18.18,3,17.765,3,17.074c0,0.038,0,0.076,0,0.116c0,4.475,2.579,8.208,6.803,9.056
	c-0.774,0.211-1.893,0.324-2.736,0.324c-0.594,0-1.324-0.058-1.889-0.166c1.175,3.669,4.512,6.34,8.552,6.414
	c-3.161,2.478-7.181,3.954-11.508,3.954c-0.746,0-1.499-0.044-2.222-0.13c4.087,2.621,8.931,4.151,14.148,4.151
	c16.988,0,26.273-14.074,26.273-26.28c0-0.4-0.011-0.798-0.029-1.195C42.198,12.017,43.761,10.39,45,8.538z"/>
</svg>
