<?xml version="1.0" encoding="utf-8"?>
<!-- Generator: Adobe Illustrator 17.0.0, SVG Export Plug-In . SVG Version: 6.00 Build 0)  -->
<!DOCTYPE svg PUBLIC "-//W3C//DTD SVG 1.1//EN" "http://www.w3.org/Graphics/SVG/1.1/DTD/svg11.dtd">
<svg version="1.1" id="Layer_1" xmlns="http://www.w3.org/2000/svg" xmlns:xlink="http://www.w3.org/1999/xlink" x="0px" y="0px"
	 width="45px" height="45px" viewBox="0 0 45 45" enable-background="new 0 0 45 45" xml:space="preserve">
<g>
	<path fill="#4D4D4D" d="M43.988,38.071L33.226,27.309c1.623-2.666,2.558-5.797,2.558-9.147C35.783,8.432,27.351,0,17.619,0
		C7.889,0,0,7.889,0,17.62s8.432,18.162,18.162,18.162c3.235,0,6.266-0.876,8.871-2.398l10.82,10.821
		c1.059,1.059,2.776,1.059,3.834,0l2.684-2.683C45.431,40.463,45.047,39.13,43.988,38.071z M5.422,17.62
		c0-6.737,5.461-12.199,12.197-12.199c6.739,0,12.742,6.003,12.742,12.741c0,6.737-5.461,12.199-12.199,12.199
		C11.426,30.361,5.422,24.358,5.422,17.62z"/>
</g>
</svg>
