<?xml version="1.0" encoding="utf-8"?>
<!-- Generator: Adobe Illustrator 17.0.0, SVG Export Plug-In . SVG Version: 6.00 Build 0)  -->
<!DOCTYPE svg PUBLIC "-//W3C//DTD SVG 1.1//EN" "http://www.w3.org/Graphics/SVG/1.1/DTD/svg11.dtd">
<svg version="1.1" id="Layer_1" xmlns="http://www.w3.org/2000/svg" xmlns:xlink="http://www.w3.org/1999/xlink" x="0px" y="0px"
	 width="45px" height="45px" viewBox="0 0 45 45" enable-background="new 0 0 45 45" xml:space="preserve">
<g>
	<path fill="#4D4D4D" d="M20,17.706V19h-3v3h3v10h4V22h3v-3h-3v-1.648C24,16.719,24.675,16,25.035,16H27v-3h-1.965
		C22.516,13,20,15.062,20,17.706z"/>
	<path fill="#4D4D4D" d="M22.833,0c-12.407,0-22.5,10.093-22.5,22.5S10.427,45,22.833,45s22.5-10.093,22.5-22.5S35.24,0,22.833,0z
		 M22.833,43.977c-11.842,0-21.477-9.635-21.477-21.477S10.991,1.023,22.833,1.023S44.311,10.657,44.311,22.5
		S34.676,43.977,22.833,43.977z"/>
</g>
</svg>
