<?xml version="1.0" encoding="utf-8"?>
<!-- Generator: Adobe Illustrator 17.0.0, SVG Export Plug-In . SVG Version: 6.00 Build 0)  -->
<!DOCTYPE svg PUBLIC "-//W3C//DTD SVG 1.1//EN" "http://www.w3.org/Graphics/SVG/1.1/DTD/svg11.dtd">
<svg version="1.1" id="Layer_1" xmlns="http://www.w3.org/2000/svg" xmlns:xlink="http://www.w3.org/1999/xlink" x="0px" y="0px"
	 width="45px" height="45px" viewBox="0 0 45 45" enable-background="new 0 0 45 45" xml:space="preserve">
<g>
	<path fill="#4D4D4D" d="M1.485,10.714c1.22,0.656,18.121,9.734,18.749,10.072c0.629,0.338,1.444,0.501,2.266,0.501
		s1.636-0.163,2.266-0.501c0.629-0.338,17.529-9.416,18.75-10.072C44.736,10.059,45.892,8,43.648,8H1.351
		C-0.891,8,0.264,10.059,1.485,10.714z M44.032,15.714c-1.387,0.724-18.417,9.629-19.267,10.072
		c-0.85,0.444-1.444,0.501-2.266,0.501s-1.416-0.058-2.266-0.501c-0.849-0.443-17.879-9.348-19.267-10.072
		C-0.008,15.205,0,15.802,0,16.263c0,0.461,0,18.34,0,18.34C0,35.65,1.396,37,2.48,37H42.52C43.604,37,45,35.65,45,34.603
		c0,0,0-17.879,0-18.34C45,15.802,45.009,15.205,44.032,15.714z"/>
</g>
</svg>
