<?xml version="1.0" encoding="utf-8"?>
<!-- Generator: Adobe Illustrator 17.0.0, SVG Export Plug-In . SVG Version: 6.00 Build 0)  -->
<!DOCTYPE svg PUBLIC "-//W3C//DTD SVG 1.1//EN" "http://www.w3.org/Graphics/SVG/1.1/DTD/svg11.dtd">
<svg version="1.1" id="Layer_1" xmlns="http://www.w3.org/2000/svg" xmlns:xlink="http://www.w3.org/1999/xlink" x="0px" y="0px"
	 width="45px" height="45px" viewBox="0 0 45 45" enable-background="new 0 0 45 45" xml:space="preserve">
<g>
	<path fill="#4D4D4D" d="M21.533,23.234c-0.568-0.498-1.059-0.929-1.059-1.347c0-0.426,0.358-0.747,0.811-1.153
		c0.734-0.656,1.426-1.591,1.426-3.357c0-1.553-0.201-2.595-1.442-3.256c0.129-0.066,0.217-0.114,0.444-0.146
		C22.386,13.884,23,13.78,23,13.231V13h-4.161c-0.049,0-4.954,0.246-4.954,4.738c0,1.591,0.531,2.771,1.579,3.446
		c0.858,0.553,1.854,0.651,2.371,0.651c0.126,0,0.226,0.019,0.297,0.014c0,0-0.164,1.151,0.628,2.151h-0.036
		c-1.373,0-5.853,0.271-5.853,3.953c0,3.747,4.114,3.991,4.939,3.991c0.065,0,0.102,0.056,0.102,0.056s0.068,0,0.169,0
		c0.53,0,1.899-0.129,3.17-0.747c1.649-0.801,2.486-2.224,2.486-4.17C23.738,25.202,22.463,24.052,21.533,23.234z M18.703,20.615
		c-1.06,0-2.11-1.072-2.498-2.548c-0.217-0.83-0.2-1.555,0.05-2.252c0.245-0.686,0.685-1.149,1.239-1.305
		c0.133-0.038,0.271-0.057,0.41-0.057c1.279,0,2.102,0.53,2.611,2.321c0.481,1.69-0.245,3.458-1.402,3.784
		C18.979,20.596,18.842,20.615,18.703,20.615z M18.681,30.146c-1.955,0.143-3.564-0.737-3.658-2.234
		c-0.045-0.719,0.271-1.424,0.89-1.985c0.628-0.569,1.49-0.919,2.427-0.988c0.111-0.007,0.221-0.011,0.33-0.011
		c1.809,0,3.034,1.063,3.123,2.474C21.887,28.901,20.605,30.006,18.681,30.146z"/>
	<polygon fill="#4D4D4D" points="28,17 26,17 26,20 23,20 23,22 26,22 26,25 28,25 28,22 32,22 32,20 28,20 	"/>
	<path fill="#4D4D4D" d="M22.5,0C10.093,0,0,10.093,0,22.5S10.093,45,22.5,45S45,34.907,45,22.5S34.907,0,22.5,0z M22.5,43.977
		c-11.842,0-21.477-9.635-21.477-21.477S10.658,1.023,22.5,1.023S43.977,10.657,43.977,22.5S34.342,43.977,22.5,43.977z"/>
</g>
</svg>
