<?xml version="1.0" encoding="utf-8"?>
<!-- Generator: Adobe Illustrator 17.0.0, SVG Export Plug-In . SVG Version: 6.00 Build 0)  -->
<!DOCTYPE svg PUBLIC "-//W3C//DTD SVG 1.1//EN" "http://www.w3.org/Graphics/SVG/1.1/DTD/svg11.dtd">
<svg version="1.1" id="Layer_1" xmlns="http://www.w3.org/2000/svg" xmlns:xlink="http://www.w3.org/1999/xlink" x="0px" y="0px"
	 width="45px" height="45px" viewBox="0 0 45 45" enable-background="new 0 0 45 45" xml:space="preserve">
<g>
	<path fill="#4D4D4D" d="M31.224,0H13.776C11.25,0,9.184,2.066,9.184,4.592v35.816c0,2.525,2.066,4.592,4.592,4.592h17.449
		c2.525,0,4.592-2.066,4.592-4.592V4.592C35.816,2.066,33.75,0,31.224,0z M22.5,43.163c-1.775,0-3.214-1.028-3.214-2.296
		c0-1.268,1.44-2.296,3.214-2.296c1.774,0,3.214,1.028,3.214,2.296C25.714,42.136,24.274,43.163,22.5,43.163z M32.143,36.276H12.857
		V5.969h19.286V36.276z"/>
</g>
</svg>
