<?xml version="1.0" encoding="utf-8"?>
<!-- Generator: Adobe Illustrator 17.0.0, SVG Export Plug-In . SVG Version: 6.00 Build 0)  -->
<!DOCTYPE svg PUBLIC "-//W3C//DTD SVG 1.1//EN" "http://www.w3.org/Graphics/SVG/1.1/DTD/svg11.dtd">
<svg version="1.1" id="Layer_1" xmlns="http://www.w3.org/2000/svg" xmlns:xlink="http://www.w3.org/1999/xlink" x="0px" y="0px"
	 width="45px" height="45px" viewBox="0 0 45 45" enable-background="new 0 0 45 45" xml:space="preserve">
<g>
	<path fill="#4D4D4D" d="M31.872,22.607c0-5.312-4.185-9.619-9.349-9.619c-0.545,0-1.079,0.049-1.598,0.141
		c-0.836-0.541-1.824-0.856-2.885-0.856c-2.994,0-5.422,2.498-5.422,5.578c0,1.03,0.272,1.993,0.745,2.821
		c-0.124,0.625-0.189,1.272-0.189,1.934c0,5.313,4.186,9.62,9.349,9.62c0.585,0,1.157-0.056,1.712-0.161
		c0.763,0.422,1.636,0.662,2.563,0.662c2.995,0,5.422-2.498,5.422-5.578c0-0.89-0.203-1.731-0.564-2.478
		C31.796,24.006,31.872,23.316,31.872,22.607z M27.317,27.205c-0.433,0.63-1.072,1.129-1.9,1.483
		c-0.82,0.35-1.803,0.529-2.922,0.529c-1.343,0-2.469-0.243-3.347-0.723c-0.628-0.349-1.146-0.822-1.54-1.405
		c-0.397-0.589-0.598-1.174-0.598-1.738c0-0.352,0.131-0.658,0.39-0.908c0.256-0.248,0.584-0.373,0.976-0.373
		c0.321,0,0.598,0.1,0.824,0.295c0.215,0.188,0.4,0.466,0.548,0.824c0.166,0.391,0.346,0.72,0.537,0.98
		c0.183,0.25,0.447,0.459,0.784,0.623c0.339,0.165,0.796,0.249,1.358,0.249c0.773,0,1.406-0.17,1.883-0.505
		c0.466-0.327,0.692-0.72,0.692-1.2c0-0.38-0.118-0.678-0.361-0.913c-0.254-0.245-0.591-0.435-0.998-0.566
		c-0.425-0.136-1.003-0.283-1.716-0.437c-0.971-0.214-1.795-0.468-2.45-0.754c-0.67-0.293-1.211-0.7-1.606-1.21
		c-0.401-0.516-0.605-1.165-0.605-1.928c0-0.727,0.213-1.382,0.635-1.947c0.418-0.561,1.028-0.997,1.814-1.296
		c0.776-0.295,1.699-0.445,2.743-0.445c0.835,0,1.569,0.099,2.182,0.295c0.616,0.197,1.136,0.464,1.544,0.792
		c0.411,0.33,0.717,0.684,0.909,1.051c0.194,0.371,0.292,0.74,0.292,1.097c0,0.344-0.129,0.656-0.384,0.928
		c-0.256,0.274-0.579,0.413-0.96,0.413c-0.346,0-0.617-0.087-0.806-0.258c-0.175-0.159-0.357-0.407-0.558-0.764
		c-0.233-0.456-0.516-0.815-0.839-1.068c-0.314-0.246-0.839-0.371-1.561-0.371c-0.67,0-1.215,0.138-1.62,0.411
		c-0.39,0.263-0.579,0.565-0.579,0.922c0,0.219,0.061,0.402,0.186,0.56c0.133,0.167,0.32,0.313,0.557,0.435
		c0.246,0.127,0.498,0.228,0.752,0.301c0.26,0.074,0.696,0.184,1.294,0.326c0.756,0.167,1.452,0.354,2.067,0.556
		c0.623,0.205,1.161,0.458,1.6,0.752c0.448,0.3,0.802,0.685,1.054,1.145c0.253,0.462,0.381,1.032,0.381,1.694
		C27.972,25.85,27.752,26.572,27.317,27.205z"/>
	<path fill="#4D4D4D" d="M22.5,0C10.093,0,0,10.093,0,22.5S10.093,45,22.5,45S45,34.907,45,22.5S34.907,0,22.5,0z M22.5,43.977
		c-11.843,0-21.477-9.635-21.477-21.477S10.657,1.023,22.5,1.023c11.842,0,21.477,9.635,21.477,21.477S34.342,43.977,22.5,43.977z"
		/>
</g>
</svg>
