<?xml version="1.0" encoding="utf-8"?>
<!-- Generator: Adobe Illustrator 17.0.0, SVG Export Plug-In . SVG Version: 6.00 Build 0)  -->
<!DOCTYPE svg PUBLIC "-//W3C//DTD SVG 1.1//EN" "http://www.w3.org/Graphics/SVG/1.1/DTD/svg11.dtd">
<svg version="1.1" id="Layer_1" xmlns="http://www.w3.org/2000/svg" xmlns:xlink="http://www.w3.org/1999/xlink" x="0px" y="0px"
	 width="45px" height="45px" viewBox="0 0 45 45" enable-background="new 0 0 45 45" xml:space="preserve">
<g>
	<path fill="#4D4D4D" d="M15.014,13.046c-1.321,0-2.184,0.89-2.184,2.05c0,1.133,0.836,2.05,2.13,2.05
		c1.376,0,2.212-0.917,2.212-2.05C17.145,13.936,16.336,13.046,15.014,13.046z"/>
	<rect x="13" y="19" fill="#4D4D4D" width="4" height="12"/>
	<path fill="#4D4D4D" d="M27.283,18.168c-2.212,0-3.53,1.832-4.07,1.832h-0.081l-0.189-1h-3.56C19.437,20,19,21.327,19,22.972V31h4
		v-6.652c0-0.378,0.322-0.755,0.431-1.025c0.297-0.755,1.165-1.537,2.298-1.537c1.484,0,2.272,1.159,2.272,2.859V31h4v-6.841
		C32,20.275,29.98,18.168,27.283,18.168z"/>
	<path fill="#4D4D4D" d="M22.5,0C10.093,0,0,10.093,0,22.5S10.093,45,22.5,45S45,34.907,45,22.5S34.907,0,22.5,0z M22.5,43.977
		c-11.842,0-21.477-9.635-21.477-21.477S10.658,1.023,22.5,1.023S43.977,10.657,43.977,22.5S34.342,43.977,22.5,43.977z"/>
</g>
</svg>
